<svg xmlns="http://www.w3.org/2000/svg" viewBox="0 0 512 512" role="img" aria-labelledby="title desc">
  <title id="title">Wayfinder</title>
  <desc id="desc">A symmetrical purple wayfinding mark with a centered W-shaped cutout and subtly rounded points.</desc>

  <path
    fill="#6754c4"
    d="
      M 210 48
      C 119 57, 48 128, 48 210
      L 48 302
      C 48 392, 120 464, 210 464
      L 302 464
      C 392 464, 464 392, 464 302
      L 464 210
      C 464 128, 393 57, 302 48
      Q 294 47, 297 56
      L 380 346
      Q 383 356, 374 351
      L 264 294
      Q 256 290, 248 294
      L 138 351
      Q 129 356, 132 346
      L 215 56
      Q 218 47, 210 48
      Z
    "
  />
</svg>
